<svg width="28" height="26" viewBox="0 0 28 26" fill="none" xmlns="http://www.w3.org/2000/svg">
<path d="M14 25.2C13.7646 25.2003 13.5321 25.1464 13.3202 25.0425C12.7773 24.7747 0 18.3818 0 7.87493C2.08366e-05 6.3175 0.456135 4.79506 1.31067 3.50008C2.16521 2.20511 3.3798 1.19576 4.80086 0.599662C6.22192 0.00356289 7.78564 -0.152519 9.29431 0.151151C10.803 0.454822 12.1888 1.20461 13.2767 2.30571L14 3.03808L14.7233 2.30571C15.8112 1.20461 17.197 0.454822 18.7057 0.151151C20.2144 -0.152519 21.7781 0.00356289 23.1991 0.599662C24.6202 1.19576 25.8348 2.20511 26.6893 3.50008C27.5439 4.79506 28 6.3175 28 7.87493C28 18.3424 15.2258 24.7716 14.6813 25.0425C14.469 25.1466 14.236 25.2005 14 25.2Z" fill="black"/>
</svg>
